<mxfile host="app.diagrams.net" agent="Mozilla/5.0 (Windows NT 10.0; Win64; x64) AppleWebKit/537.36 (KHTML, like Gecko) Chrome/129.0.0.0 Safari/537.36" version="24.7.17">
  <diagram name="Page-1" id="efa7a0a1-bf9b-a30e-e6df-94a7791c09e9">
    <mxGraphModel dx="1120" dy="426" grid="1" gridSize="10" guides="1" tooltips="1" connect="1" arrows="1" fold="1" page="1" pageScale="1" pageWidth="826" pageHeight="1169" background="none" math="0" shadow="0">
      <root>
        <mxCell id="0" />
        <mxCell id="1" parent="0" />
        <mxCell id="19" value="&lt;p style=&quot;margin: 4px 0px 0px; text-align: center;&quot;&gt;&lt;b&gt;&lt;u&gt;COTIZACION_DIARIA&lt;/u&gt;&lt;/b&gt;&lt;br&gt;&lt;/p&gt;&lt;p style=&quot;margin: 4px 0px 0px; text-align: center;&quot;&gt;&lt;b&gt;&lt;u&gt;&lt;br&gt;&lt;/u&gt;&lt;/b&gt;&lt;/p&gt;&lt;p style=&quot;margin: 0px; margin-left: 8px;&quot;&gt;IdCompany&lt;br&gt;Name&lt;/p&gt;&lt;p style=&quot;margin: 0px; margin-left: 8px;&quot;&gt;Description&lt;/p&gt;&lt;p style=&quot;margin: 0px; margin-left: 8px;&quot;&gt;CreatedAt&lt;/p&gt;&lt;p style=&quot;margin: 0px; margin-left: 8px;&quot;&gt;UpdatedAt&lt;/p&gt;&lt;p style=&quot;margin: 0px; margin-left: 8px;&quot;&gt;Enabled&lt;/p&gt;" style="verticalAlign=top;align=left;overflow=fill;fontSize=12;fontFamily=Helvetica;html=1;strokeColor=#003366;shadow=1;fillColor=#D4E1F5;fontColor=#003366" parent="1" vertex="1">
          <mxGeometry x="620.0000000000001" y="132.50000000000045" width="160" height="120" as="geometry" />
        </mxCell>
        <mxCell id="20" value="&lt;p style=&quot;margin: 4px 0px 0px; text-align: center;&quot;&gt;&lt;b&gt;&lt;u&gt;HISTORIAL_SALDO&lt;/u&gt;&lt;/b&gt;&lt;br&gt;&lt;/p&gt;&lt;hr&gt;&lt;p style=&quot;margin: 0px; margin-left: 8px;&quot;&gt;Name&lt;/p&gt;&lt;p style=&quot;margin: 0px; margin-left: 8px;&quot;&gt;Description&lt;/p&gt;&lt;p style=&quot;margin: 0px; margin-left: 8px;&quot;&gt;CreatedAt&lt;/p&gt;&lt;p style=&quot;margin: 0px; margin-left: 8px;&quot;&gt;UpdatedAt&lt;/p&gt;&lt;p style=&quot;margin: 0px; margin-left: 8px;&quot;&gt;Enabled&lt;/p&gt;" style="verticalAlign=top;align=left;overflow=fill;fontSize=12;fontFamily=Helvetica;html=1;strokeColor=#003366;shadow=1;fillColor=#D4E1F5;fontColor=#003366" parent="1" vertex="1">
          <mxGeometry x="380.00000000000006" y="129.99999999999977" width="160" height="125" as="geometry" />
        </mxCell>
        <mxCell id="21" value="&lt;p style=&quot;margin: 4px 0px 0px; text-align: center;&quot;&gt;&lt;b&gt;&lt;u&gt;INVERSOR&lt;/u&gt;&lt;/b&gt;&lt;br&gt;&lt;/p&gt;&lt;hr&gt;&lt;p style=&quot;margin: 0px; margin-left: 8px;&quot;&gt;IdCalendar&lt;/p&gt;&lt;p style=&quot;margin: 0px; margin-left: 8px;&quot;&gt;IdCompany&lt;/p&gt;&lt;p style=&quot;margin: 0px; margin-left: 8px;&quot;&gt;Name&lt;/p&gt;&lt;p style=&quot;margin: 0px; margin-left: 8px;&quot;&gt;Description&lt;/p&gt;&lt;p style=&quot;margin: 0px; margin-left: 8px;&quot;&gt;ValidUntil&lt;/p&gt;&lt;p style=&quot;margin: 0px; margin-left: 8px;&quot;&gt;CreatedAt&lt;/p&gt;&lt;p style=&quot;margin: 0px; margin-left: 8px;&quot;&gt;UpdatedAt&lt;/p&gt;&lt;p style=&quot;margin: 0px; margin-left: 8px;&quot;&gt;Enabled&lt;/p&gt;" style="verticalAlign=top;align=left;overflow=fill;fontSize=12;fontFamily=Helvetica;html=1;strokeColor=#003366;shadow=1;fillColor=#D4E1F5;fontColor=#003366" parent="1" vertex="1">
          <mxGeometry x="120.00000000000003" y="129.99999999999983" width="160" height="160" as="geometry" />
        </mxCell>
        <mxCell id="23" value="&lt;p style=&quot;margin: 4px 0px 0px; text-align: center;&quot;&gt;&lt;b&gt;&lt;u&gt;TRANSACCION&lt;/u&gt;&lt;/b&gt;&lt;br&gt;&lt;/p&gt;&lt;hr&gt;&lt;p style=&quot;margin: 0px; margin-left: 8px;&quot;&gt;IdUserProjectRole&lt;/p&gt;&lt;p style=&quot;margin: 0px; margin-left: 8px;&quot;&gt;IdRole&lt;/p&gt;&lt;p style=&quot;margin: 0px; margin-left: 8px;&quot;&gt;IdProject&lt;/p&gt;&lt;p style=&quot;margin: 0px; margin-left: 8px;&quot;&gt;IdUser&lt;/p&gt;" style="verticalAlign=top;align=left;overflow=fill;fontSize=12;fontFamily=Helvetica;html=1;strokeColor=#003366;shadow=1;fillColor=#D4E1F5;fontColor=#003366" parent="1" vertex="1">
          <mxGeometry x="390.00000000000045" y="370.00000000000057" width="160" height="100" as="geometry" />
        </mxCell>
        <mxCell id="24" value="&lt;p style=&quot;margin: 4px 0px 0px; text-align: center;&quot;&gt;&lt;b&gt;&lt;u&gt;PORTAFOLIO&lt;/u&gt;&lt;/b&gt;&lt;br&gt;&lt;/p&gt;&lt;hr&gt;&lt;p style=&quot;margin: 0px; margin-left: 8px;&quot;&gt;IdClient&lt;/p&gt;&lt;p style=&quot;margin: 0px; margin-left: 8px;&quot;&gt;IdCompany&lt;/p&gt;&lt;p style=&quot;margin: 0px; margin-left: 8px;&quot;&gt;Name&lt;/p&gt;&lt;p style=&quot;margin: 0px; margin-left: 8px;&quot;&gt;Description&lt;/p&gt;&lt;p style=&quot;margin: 0px; margin-left: 8px;&quot;&gt;CreatedAt&lt;/p&gt;&lt;p style=&quot;margin: 0px; margin-left: 8px;&quot;&gt;UpdatedAt&lt;/p&gt;&lt;p style=&quot;margin: 0px; margin-left: 8px;&quot;&gt;Enabled&lt;/p&gt;" style="verticalAlign=top;align=left;overflow=fill;fontSize=12;fontFamily=Helvetica;html=1;strokeColor=#003366;shadow=1;fillColor=#D4E1F5;fontColor=#003366" parent="1" vertex="1">
          <mxGeometry x="120.00000000000023" y="370.0000000000006" width="160" height="150" as="geometry" />
        </mxCell>
        <mxCell id="25" value="&lt;p style=&quot;margin: 4px 0px 0px; text-align: center;&quot;&gt;&lt;b&gt;&lt;u&gt;ACCION&lt;/u&gt;&lt;/b&gt;&lt;br&gt;&lt;/p&gt;&lt;hr&gt;&lt;p style=&quot;margin: 0px; margin-left: 8px;&quot;&gt;IdHoliday&lt;/p&gt;&lt;p style=&quot;margin: 0px; margin-left: 8px;&quot;&gt;IdCalendar&lt;/p&gt;&lt;p style=&quot;margin: 0px; margin-left: 8px;&quot;&gt;Name&lt;/p&gt;&lt;p style=&quot;margin: 0px; margin-left: 8px;&quot;&gt;Description&lt;/p&gt;&lt;p style=&quot;margin: 0px; margin-left: 8px;&quot;&gt;Date&lt;/p&gt;&lt;p style=&quot;margin: 0px; margin-left: 8px;&quot;&gt;CreatedAt&lt;/p&gt;&lt;p style=&quot;margin: 0px; margin-left: 8px;&quot;&gt;UpdatedAt&lt;/p&gt;&lt;p style=&quot;margin: 0px; margin-left: 8px;&quot;&gt;Enabled&lt;/p&gt;" style="verticalAlign=top;align=left;overflow=fill;fontSize=12;fontFamily=Helvetica;html=1;strokeColor=#003366;shadow=1;fillColor=#D4E1F5;fontColor=#003366" parent="1" vertex="1">
          <mxGeometry x="670" y="370.0000000000004" width="160" height="160" as="geometry" />
        </mxCell>
        <mxCell id="31" value="&lt;p style=&quot;margin: 0px; margin-top: 4px; text-align: center; text-decoration: underline;&quot;&gt;&lt;strong&gt;TimeSheetCostCenter&lt;/strong&gt;&lt;/p&gt;&lt;hr /&gt;&lt;p style=&quot;margin: 0px; margin-left: 8px;&quot;&gt;IdTimeSheetCostCenter&lt;/p&gt;&lt;p style=&quot;margin: 0px; margin-left: 8px;&quot;&gt;IdTimeSheet&lt;/p&gt;&lt;p style=&quot;margin: 0px; margin-left: 8px;&quot;&gt;IdCostCenter&lt;/p&gt;" style="verticalAlign=top;align=left;overflow=fill;fontSize=12;fontFamily=Helvetica;html=1;strokeColor=#003366;shadow=1;fillColor=#D4E1F5;fontColor=#003366" parent="1" vertex="1">
          <mxGeometry x="1170" y="912.4999999999997" width="160" height="95" as="geometry" />
        </mxCell>
        <mxCell id="75" value="" style="endArrow=open;endSize=12;startArrow=diamondThin;startSize=14;startFill=0;edgeStyle=orthogonalEdgeStyle" parent="1" source="31" edge="1">
          <mxGeometry x="1079.36" y="560" as="geometry">
            <mxPoint x="1079.36" y="560" as="sourcePoint" />
            <mxPoint x="1250" y="850" as="targetPoint" />
          </mxGeometry>
        </mxCell>
        <mxCell id="76" value="0..n" style="resizable=0;align=left;verticalAlign=top;labelBackgroundColor=#ffffff;fontSize=10;strokeColor=#003366;shadow=1;fillColor=#D4E1F5;fontColor=#003366" parent="75" connectable="0" vertex="1">
          <mxGeometry x="-1" relative="1" as="geometry">
            <mxPoint x="10.00000000000009" y="-22.499999999999915" as="offset" />
          </mxGeometry>
        </mxCell>
        <mxCell id="77" value="1" style="resizable=0;align=right;verticalAlign=top;labelBackgroundColor=#ffffff;fontSize=10;strokeColor=#003366;shadow=1;fillColor=#D4E1F5;fontColor=#003366" parent="75" connectable="0" vertex="1">
          <mxGeometry x="1" relative="1" as="geometry">
            <mxPoint x="20" as="offset" />
          </mxGeometry>
        </mxCell>
        <mxCell id="110" value="" style="endArrow=none;edgeStyle=orthogonalEdgeStyle;" parent="1" target="31" edge="1">
          <mxGeometry x="910" y="972.4999999999998" as="geometry">
            <mxPoint x="1100" y="959.9999999999995" as="sourcePoint" />
            <mxPoint x="1070" y="972.4999999999998" as="targetPoint" />
          </mxGeometry>
        </mxCell>
        <mxCell id="111" value="parent" style="resizable=0;align=left;verticalAlign=bottom;labelBackgroundColor=#ffffff;fontSize=10;strokeColor=#003366;shadow=1;fillColor=#D4E1F5;fontColor=#003366" parent="110" connectable="0" vertex="1">
          <mxGeometry x="-1" relative="1" as="geometry">
            <mxPoint x="10" as="offset" />
          </mxGeometry>
        </mxCell>
        <mxCell id="112" value="child" style="resizable=0;align=right;verticalAlign=bottom;labelBackgroundColor=#ffffff;fontSize=10;strokeColor=#003366;shadow=1;fillColor=#D4E1F5;fontColor=#003366" parent="110" connectable="0" vertex="1">
          <mxGeometry x="1" relative="1" as="geometry">
            <mxPoint x="-10" y="25" as="offset" />
          </mxGeometry>
        </mxCell>
      </root>
    </mxGraphModel>
  </diagram>
</mxfile>
